<?xml version="1.0" encoding="UTF-8" standalone="no"?>
<svg
   xml:space="preserve"
   width="1000"
   height="916.66669"
   version="1.1"
   id="svg10"
   sodipodi:docname="Zynga_2012_website.svg"
   inkscape:version="1.1.2 (b8e25be833, 2022-02-05)"
   xmlns:inkscape="http://www.inkscape.org/namespaces/inkscape"
   xmlns:sodipodi="http://sodipodi.sourceforge.net/DTD/sodipodi-0.dtd"
   xmlns="http://www.w3.org/2000/svg"
   xmlns:svg="http://www.w3.org/2000/svg"><defs
     id="defs14" /><sodipodi:namedview
     id="namedview12"
     pagecolor="#ffffff"
     bordercolor="#666666"
     borderopacity="1.0"
     inkscape:pageshadow="2"
     inkscape:pageopacity="0.0"
     inkscape:pagecheckerboard="0"
     showgrid="false"
     inkscape:zoom="0.5"
     inkscape:cx="583"
     inkscape:cy="460"
     inkscape:window-width="1366"
     inkscape:window-height="705"
     inkscape:window-x="-8"
     inkscape:window-y="-8"
     inkscape:window-maximized="1"
     inkscape:current-layer="svg10" /><g
     id="g1225"><path
       fill="#dc0606"
       fill-rule="evenodd"
       d="M 0,916.66667 H 1000 V 0 H 0 Z"
       id="path2"
       style="stroke-width:3.33333" /><path
       fill="#ffffff"
       d="m 551.13641,125.4599 c 9.84107,-12.34729 24.5981,-23.82115 43.45017,-4.40693 20.50303,18.53089 36.0809,35.28506 31.15573,40.58528 -3.2742,3.52356 -11.47353,-0.88337 -17.21033,-4.41684 -7.3785,3.53347 -10.66197,9.70711 -12.30367,17.64751 -2.45336,8.82373 -4.91593,19.41422 -9.0202,20.2976 5.746,25.57796 2.46257,72.33688 -4.91593,87.34422 0,25.57795 0,25.57795 0,25.57795 21.31467,41.46863 35.25087,152.63399 7.37853,203.80973 0,0 -0.82083,66.16326 -13.11526,95.28459 0,0 -12.2944,62.63967 -9.0202,96.16793 5.73676,2.6402 22.13553,13.23067 25.41893,19.40434 3.27423,5.29523 4.09507,14.117 3.27423,16.76413 -7.3785,14.11603 -48.36609,14.9984 -66.40653,0 -4.09506,-14.116 3.28344,-67.05653 1.6417,-99.69146 -2.4626,-31.76157 -5.7368,-44.11877 -10.66196,-86.4708 -26.23057,5.3002 -53.28204,7.9404 -83.6169,4.41683 -7.37853,36.16843 -20.4938,89.11093 -22.1355,119.9891 -1.64173,23.82116 -3.28343,91.75313 -3.28343,91.75313 0,6.1766 4.92516,11.46986 4.92516,15.88073 0.81164,7.058 1.6325,15.88077 0.81164,20.29263 -10.6527,22.0564 -56.56547,19.4096 -63.94394,0.8824 0,-5.29426 0.82084,-16.76316 3.2834,-20.29266 2.45334,-4.41084 13.1153,-12.35124 14.757,-18.5269 3.2742,-22.93973 5.7368,-105.87007 0,-125.2843 -8.1994,-17.6475 -14.75703,-65.28983 -15.57786,-106.74853 -5.7368,-1.76676 -28.69321,-16.76413 -51.64956,-31.7615 -8.19938,28.22804 -23.77725,42.34207 -23.77725,42.34207 7.37854,38.81853 7.37854,38.81853 7.37854,38.81853 4.91591,0.8834 21.31466,7.94037 24.59808,14.12397 2.45334,5.29026 2.45334,9.6972 2.45334,14.114 -4.91591,9.70716 -40.16671,7.9404 -46.72436,-0.88334 -22.95639,-78.52049 -22.95639,-78.52049 -22.95639,-78.52049 0,0 8.19937,-26.47124 4.09506,-60.87294 -72.96328,7.9404 -95.9187,111.16533 -104.11715,158.80767 0.81996,7.057 0.81996,7.057 0.81996,7.057 1.63987,2.6402 1.63987,10.58053 0,12.34729 -5.73862,11.47387 -40.99155,10.5905 -48.370043,0 0,-3.52356 0.819823,-9.70709 3.279373,-14.99743 2.45943,-3.53346 14.75671,-13.2306 18.03645,-15.88073 16.39689,-69.69673 16.39689,-69.69673 16.39689,-69.69673 2.45884,-77.63707 21.31555,-151.7506 51.6495,-192.3359 -41.81217,-54.69929 -37.71248,-115.57222 -4.91964,-147.33377 3.27973,-3.53347 9.83831,-7.06694 12.30089,-5.30018 1.63249,0.88333 0.82084,3.53346 -2.46258,9.70711 -22.95547,37.05177 -18.85671,87.34417 23.77724,114.69879 49.18693,-33.52826 192.66195,-39.70191 192.66195,-39.70191 3.27423,-15.00733 3.27423,-15.00733 3.27423,-15.00733 -1.64173,-6.17364 -7.3785,-32.63493 -5.7368,-45.87555 -1.6417,-0.88333 -5.7368,-7.05698 -12.29447,-12.34729 -4.92513,-4.41684 -12.30363,-4.41684 -14.75696,-9.70711 -15.57787,22.0544 -11.4828,-5.29027 -9.02024,-15.88076 4.09507,-19.41422 7.3785,-47.6423 36.07167,-50.29239 5.7368,-0.88338 19.67293,0 25.41893,7.05702 4.91594,-7.9404 45.08267,-17.6376 54.10287,-15.88075 8.1994,-7.9404 62.31146,-10.58058 65.58569,-7.05703 z"
       id="path4"
       style="stroke-width:3.33333" /><g
       id="g1215"><path
         id="path1170"
         style="fill:#ffffff;fill-opacity:1;stroke-width:3.33333"
         d="m 693.72461,123.71875 v 34.13477 l 10.24805,1.58984 c -6.83527,7.9396 -13.67188,21.43506 -13.67188,34.92969 0,39.69795 33.33117,60.33597 82.04297,60.33593 44.43187,0 78.61328,-20.63967 78.61328,-57.1582 0,-13.49462 -6.83768,-27.78314 -18.80078,-36.51758 l 15.38281,-2.38476 v -34.92969 z m 41.00977,37.31445 h 65.80468 c 8.5445,6.34991 15.38086,18.25418 15.38086,30.96289 0,12.69977 -12.81284,23.81051 -43.57617,23.81055 -28.2061,0 -47.85742,-7.14579 -47.85742,-27.78516 0,-9.52036 4.26844,-20.63837 10.24805,-26.98828 z" /><path
         id="path1166"
         style="fill:#ffffff;fill-opacity:1;stroke-width:3.33333"
         d="m 693.72461,268.20312 v 34.92969 l 10.24805,0.79492 c -6.83523,7.9396 -13.67188,21.43511 -13.67188,35.72461 0,38.9031 30.7648,59.54105 79.47656,59.54102 44.4347,0 75.19731,-20.63961 75.19727,-56.36328 0,-14.28949 -7.6904,-28.57805 -18.79883,-37.3125 h 8.54492 c 19.65489,-4e-5 33.32618,10.31579 33.32618,31.75 0,18.26373 -3.41734,28.57807 -6.83594,37.3125 l 34.18164,7.14453 c 3.41817,-11.1101 6.83594,-26.19489 6.83594,-50.01367 0,-42.86844 -24.78087,-63.50787 -76.05274,-63.50782 z m 41.00977,37.31446 h 59.82617 c 8.5464,7.14476 15.3789,18.25535 15.3789,31.75 0,12.7087 -9.39881,23.02337 -40.16211,23.02344 -29.05213,0 -45.29101,-7.14577 -45.29101,-27.78516 0,-9.52929 4.26844,-20.63841 10.24805,-26.98828 z" /><path
         style="fill:#ffffff;fill-opacity:1;stroke-width:3.33333"
         d="m 847.53854,413.48319 c -107.66966,1e-4 -107.66966,1e-4 -107.66966,1e-4 -32.47454,0 -49.56737,19.84453 -49.56737,43.66326 0,21.43423 11.11323,35.7237 24.7837,46.0389 -21.36127,2.38453 -21.36127,2.38453 -21.36127,2.38453 0,34.134 0,34.134 0,34.134 153.81463,-10e-5 153.81463,-10e-5 153.81463,-10e-5 0,-36.51853 0,-36.51853 0,-36.51853 -99.12323,7e-5 -99.12323,7e-5 -99.12323,7e-5 -15.38166,-11.11007 -21.3709,-23.02394 -21.3709,-34.13397 0,-11.11897 5.9892,-19.04963 25.6393,-19.0497 94.85483,-3e-5 94.85483,-3e-5 94.85483,-3e-5 z"
         id="path1162" /><path
         style="fill:#ffffff;fill-opacity:1;stroke-width:3.33333"
         d="M 900.5196,626.23555 C 693.72394,550.02811 693.72394,550.02811 693.72394,550.02811 c 0,36.5096 0,36.5096 0,36.5096 100.8364,34.93774 100.8364,34.93774 100.8364,34.93774 -100.83633,32.54429 -100.83633,32.54429 -100.83633,32.54429 0,40.48387 0,40.48387 0,40.48387 146.97843,-53.18373 146.97843,-53.18373 146.97843,-53.18373 59.81716,25.39953 59.81716,25.39953 59.81716,25.39953 z"
         id="path1160" /><path
         style="fill:#ffffff;fill-opacity:1;stroke-width:3.33333"
         d="m 847.53861,697.68294 c -33.32724,-6.34986 -33.32724,-6.34986 -33.32724,-6.34986 4e-5,78.59033 4e-5,78.59033 4e-5,78.59033 -120.4874,-69.06993 -120.4874,-69.06993 -120.4874,-69.06993 3e-5,122.25806 3e-5,122.25806 3e-5,122.25806 34.17614,6.35123 34.17614,6.35123 34.17614,6.35123 -4e-5,-68.272 -4e-5,-68.272 -4e-5,-68.272 119.63853,73.03507 119.63853,73.03507 119.63853,73.03507 z"
         id="path6" /></g></g></svg>
